<?xml version="1.0" encoding="utf-8"?>
<!-- Generator: Adobe Illustrator 16.0.0, SVG Export Plug-In . SVG Version: 6.00 Build 0)  -->
<!DOCTYPE svg PUBLIC "-//W3C//DTD SVG 1.1//EN" "http://www.w3.org/Graphics/SVG/1.1/DTD/svg11.dtd">
<svg version="1.1" id="Слой_1" xmlns="http://www.w3.org/2000/svg" xmlns:xlink="http://www.w3.org/1999/xlink" x="0px" y="0px"
	 width="100px" height="100px" viewBox="0 0 100 100" enable-background="new 0 0 100 100" xml:space="preserve">
<g>
	<path fill-rule="evenodd" clip-rule="evenodd" d="M1.603,48.877c0.313-1.325,0.521-2.686,0.957-3.969
		c2.153-6.349,8.111-10.778,14.707-11c0.44-0.015,0.725-0.02,0.859-0.607c1.812-7.878,8.901-12.623,16.857-11.325
		c0.028,0.004,0.06-0.015,0.195-0.053c0.13-0.417,0.258-0.899,0.43-1.367c3.111-8.5,9.104-13.67,18.052-15.037
		c11.177-1.707,21.431,4.986,24.728,15.825c0.102,0.335,0.521,0.716,0.865,0.814c6.463,1.847,10.551,5.957,12.044,12.552
		c0.584,2.578,0.391,5.128-0.477,7.675c0.188,0.096,0.341,0.194,0.509,0.258c4.752,1.8,7.695,5.08,8.382,10.216
		c0.011,0.084,0.091,0.159,0.139,0.239c0,0.831,0,1.663,0,2.494c-0.256,1.009-0.442,2.042-0.781,3.022
		c-1.612,4.659-6.092,7.895-11.025,7.916c-7.674,0.032-15.348,0.021-23.021,0.005c-3.278-0.007-6.037-2.773-6.053-6.052
		c-0.02-4.061-0.01-8.121,0-12.182c0.004-1.434,0.685-2.104,2.117-2.121c0.981-0.011,1.963-0.002,2.896-0.002
		c-2.423-2.404-4.828-4.792-7.158-7.104c-2.26,2.249-4.668,4.646-7.138,7.104c0.896,0,1.805-0.002,2.714,0.001
		c1.757,0.006,2.366,0.607,2.367,2.354c0.002,9.688,0.001,19.376,0.001,29.063c0,0.382,0,0.764,0,1.254
		c0.38,0.025,0.715,0.064,1.05,0.066c1.566,0.009,3.136-0.037,4.699,0.034c0.571,0.025,1.212,0.199,1.681,0.514
		c1.188,0.799,1.23,1.69,0.257,2.781c-0.106,0.119-0.225,0.229-0.337,0.342c-3.799,3.798-7.596,7.598-11.396,11.394
		c-1.141,1.14-2.941,1.143-4.072,0.013c-3.823-3.818-7.642-7.641-11.467-11.458c-0.627-0.627-1.227-1.271-0.85-2.252
		c0.401-1.041,1.257-1.363,2.302-1.358c1.727,0.009,3.453-0.017,5.18,0.01c0.569,0.009,0.791-0.158,0.786-0.759
		c-0.023-3.069,0.01-6.139-0.019-9.208c-0.017-1.729-0.757-2.424-2.486-2.424c-7.258-0.004-14.517-0.087-21.773,0.024
		c-7.71,0.118-15.003-5.313-16.486-13.709c-0.077-0.433-0.155-0.864-0.232-1.297C1.603,50.668,1.603,49.773,1.603,48.877z
		 M63.007,50.221c0,3.408-0.002,6.696,0.001,9.985c0.001,1.648,0.659,2.294,2.338,2.295c7.42,0.001,14.839,0.004,22.259-0.001
		c5.375-0.004,9.297-5.139,7.903-10.334c-0.879-3.275-3.535-5.617-6.965-5.958c-2.085-0.207-3.065-1.428-1.988-3.433
		c1.047-1.948,1.266-4.167,0.948-6.349c-0.822-5.643-4.616-9.621-10.282-10.648c-1.521-0.276-2.124-1.074-2.453-2.367
		c-2.05-8.062-8.474-13.534-16.726-14.07c-6.459-0.418-11.709,2.049-15.728,7.101c-1.865,2.345-2.893,5.069-3.466,7.996
		c-0.384,1.96-1.453,2.491-3.316,1.831c-2.938-1.041-5.799-0.829-8.465,0.79c-2.937,1.783-4.625,4.417-4.95,7.871
		c-0.24,2.566-0.717,3.008-3.288,3.012c-0.799,0.001-1.607-0.055-2.396,0.043c-6.97,0.874-11.575,6.942-10.629,13.971
		c0.831,6.174,5.805,10.543,12.013,10.546c7.419,0.002,14.839-0.008,22.258,0.003c3.744,0.007,6.446,2.615,6.492,6.331
		c0.049,3.933,0.024,7.867,0.005,11.801c-0.008,1.653-0.614,2.242-2.257,2.276c-0.939,0.02-1.879,0.004-2.779,0.004
		c2.459,2.473,4.858,4.884,7.15,7.188c2.329-2.332,4.717-4.723,7.172-7.18c-0.785,0-1.57,0.001-2.355,0
		c-2.211-0.006-2.777-0.57-2.777-2.774c-0.001-9.595-0.001-19.188-0.001-28.783c0-0.368,0-0.736,0-1.146
		c-1.963,0-3.784,0.01-5.604-0.008c-0.441-0.005-0.895-0.056-1.321-0.167c-1.306-0.341-1.697-1.874-0.725-2.843
		c4.076-4.064,8.158-8.122,12.242-12.178c1.289-1.281,2.229-1.277,3.522,0.013c3.124,3.117,6.242,6.241,9.362,9.361
		c0.814,0.814,1.645,1.613,2.439,2.446c1.168,1.226,0.731,2.778-0.909,3.241c-0.361,0.102-0.754,0.126-1.133,0.129
		C66.779,50.228,64.96,50.221,63.007,50.221z"/>
	<path fill-rule="evenodd" clip-rule="evenodd" d="M56.615,13.221c1.789,0.343,3.422,0.605,5.028,0.985
		c0.855,0.203,1.396,1.3,1.162,2.052c-0.441,1.416-1.338,1.992-2.557,1.601c-1.941-0.625-3.899-0.571-5.853-0.134
		c-2.924,0.654-5.017,2.388-6.361,5.048c-0.086,0.17-0.162,0.347-0.262,0.509c-0.559,0.9-1.927,1.413-2.757,1.04
		c-0.722-0.324-1.179-1.897-0.771-2.827c1.514-3.445,4.039-5.879,7.572-7.139C53.388,13.795,55.079,13.573,56.615,13.221z"/>
	<path fill-rule="evenodd" clip-rule="evenodd" d="M20.551,58.469c-1.553-0.126-3.145-0.077-4.651-0.412
		c-3.53-0.786-6.096-4.19-6.055-7.762c0.014-1.245,0.651-1.969,1.793-2.04c1.289-0.08,2.056,0.549,2.227,1.828
		c0.067,0.503,0.064,1.025,0.207,1.505c0.465,1.556,1.522,2.553,3.145,2.648c2.323,0.137,4.658,0.074,6.985,0.158
		c1.519,0.055,2.318,1.35,1.778,2.76c-0.295,0.771-0.872,1.165-1.686,1.176c-1.245,0.016-2.49,0.004-3.735,0.004
		C20.557,58.379,20.554,58.424,20.551,58.469z"/>
	<path fill-rule="evenodd" clip-rule="evenodd" d="M32.329,58.333c-1.167,0.011-1.996-0.808-1.996-1.973
		c0-1.166,0.827-1.983,1.996-1.973c1.125,0.01,1.928,0.804,1.948,1.924C34.296,57.483,33.489,58.322,32.329,58.333z"/>
</g>
</svg>
