<?xml version="1.0" encoding="utf-8"?>
<!-- Generator: Adobe Illustrator 16.0.0, SVG Export Plug-In . SVG Version: 6.00 Build 0)  -->
<!DOCTYPE svg PUBLIC "-//W3C//DTD SVG 1.1//EN" "http://www.w3.org/Graphics/SVG/1.1/DTD/svg11.dtd">
<svg version="1.1" id="Слой_1" xmlns="http://www.w3.org/2000/svg" xmlns:xlink="http://www.w3.org/1999/xlink" x="0px" y="0px"
	 width="100px" height="100px" viewBox="0 0 100 100" enable-background="new 0 0 100 100" xml:space="preserve">
<path fill="#747575" d="M95.657,87.411l-30.87-30.87l19.206-19.208c1.43-1.427,2.017-3.495,1.549-5.459
	c-0.461-1.968-1.913-3.554-3.827-4.195L11.728,4.349c-2.099-0.695-4.409-0.154-5.969,1.41c-1.563,1.561-2.107,3.87-1.41,5.969
	l23.329,69.987c0.641,1.914,2.227,3.366,4.192,3.828c0.447,0.108,0.895,0.159,1.341,0.159c1.529,0,3.019-0.604,4.124-1.709
	L56.54,64.788l30.87,30.87L95.657,87.411z M35.76,69.071L19.103,19.106L69.07,35.757L35.76,69.071z"/>
</svg>
