<?xml version="1.0" encoding="iso-8859-1"?>
<!-- Generator: Adobe Illustrator 19.0.0, SVG Export Plug-In . SVG Version: 6.00 Build 0)  -->
<svg version="1.1" id="Capa_1" xmlns="http://www.w3.org/2000/svg" xmlns:xlink="http://www.w3.org/1999/xlink" x="0px" y="0px"
	 viewBox="0 0 512 512" style="enable-background:new 0 0 512 512;" xml:space="preserve">
<g>
	<g>
		<path d="M232.727,69.818c-89.833,0-162.909,73.076-162.909,162.909s73.076,162.909,162.909,162.909
			s162.909-73.076,162.909-162.909S322.56,69.818,232.727,69.818z M232.727,372.364c-76.998,0-139.636-62.639-139.636-139.636
			S155.729,93.091,232.727,93.091s139.636,62.639,139.636,139.636S309.725,372.364,232.727,372.364z"/>
	</g>
</g>
<g>
	<g>
		<path d="M232.727,116.364c-64.163,0-116.364,52.201-116.364,116.364c0,6.423,5.213,11.636,11.636,11.636
			s11.636-5.213,11.636-11.636c0-51.328,41.763-93.091,93.091-93.091c6.423,0,11.636-5.213,11.636-11.636
			S239.151,116.364,232.727,116.364z"/>
	</g>
</g>
<g>
	<g>
		<path d="M232.727,197.818c-19.247,0-34.909,15.663-34.909,34.909c0,19.247,15.663,34.909,34.909,34.909
			c19.247,0,34.909-15.663,34.909-34.909C267.636,213.481,251.974,197.818,232.727,197.818z M232.727,244.364
			c-6.412,0-11.636-5.225-11.636-11.636c0-6.412,5.225-11.636,11.636-11.636c6.412,0,11.636,5.225,11.636,11.636
			C244.364,239.139,239.139,244.364,232.727,244.364z"/>
	</g>
</g>
<g>
	<g>
		<path d="M465.455,186.182c-25.67,0-46.545,20.876-46.545,46.545c0,21.62,14.895,39.692,34.909,44.893v102.272
			c0,12.672-6.877,24.367-17.955,30.522l-64.337,35.747c-3.514-15.581-17.455-27.252-34.071-27.252h-23.273v-11.636
			c0-6.423-5.213-11.636-11.636-11.636s-11.636,5.213-11.636,11.636v11.636H174.545v-11.636c0-6.423-5.213-11.636-11.636-11.636
			s-11.636,5.213-11.636,11.636v11.636H128c-19.247,0-34.909,15.663-34.909,34.909v46.545c0,6.423,5.213,11.636,11.636,11.636h256
			c6.423,0,11.636-5.213,11.636-11.636c0-6.423-5.213-11.636-11.636-11.636H116.364v-34.909c0-6.412,5.225-11.636,11.636-11.636
			h209.455c6.412,0,11.636,5.225,11.636,11.636v11.636c0,4.119,2.188,7.936,5.737,10.031c3.561,2.095,7.948,2.141,11.555,0.14
			l80.78-44.881c18.467-10.252,29.929-29.743,29.929-50.863V277.609c20.015-5.19,34.909-23.261,34.909-44.881
			C512,207.057,491.124,186.182,465.455,186.182z M465.455,256c-12.835,0-23.273-10.438-23.273-23.273
			c0-12.835,10.438-23.273,23.273-23.273c12.835,0,23.273,10.438,23.273,23.273C488.727,245.562,478.289,256,465.455,256z"/>
	</g>
</g>
<g>
	<g>
		<path d="M232.727,0c-6.423,0-11.636,5.213-11.636,11.636v23.273c0,6.423,5.213,11.636,11.636,11.636s11.636-5.213,11.636-11.636
			V11.636C244.364,5.213,239.151,0,232.727,0z"/>
	</g>
</g>
<g>
	<g>
		<path d="M34.909,209.455H11.636C5.213,209.455,0,214.668,0,221.091c0,6.423,5.213,11.636,11.636,11.636h23.273
			c6.423,0,11.636-5.213,11.636-11.636C46.545,214.668,41.332,209.455,34.909,209.455z"/>
	</g>
</g>
<g>
	<g>
		<path d="M101.073,72.983L84.62,56.529c-4.55-4.55-11.904-4.55-16.454,0c-4.55,4.55-4.55,11.904,0,16.454L84.62,89.437
			c2.269,2.269,5.248,3.409,8.227,3.409c2.979,0,5.958-1.14,8.227-3.409C105.623,84.887,105.623,77.533,101.073,72.983z"/>
	</g>
</g>
<g>
	<g>
		<path d="M101.073,352.745c-4.55-4.55-11.904-4.55-16.454,0l-16.454,16.454c-4.55,4.55-4.55,11.904,0,16.454
			c2.269,2.269,5.248,3.409,8.227,3.409c2.979,0,5.958-1.14,8.227-3.409l16.454-16.454
			C105.623,364.649,105.623,357.295,101.073,352.745z"/>
	</g>
</g>
<g>
	<g>
		<path d="M397.289,56.529c-4.55-4.55-11.904-4.55-16.454,0l-16.454,16.454c-4.55,4.55-4.55,11.904,0,16.454
			c2.269,2.269,5.248,3.409,8.227,3.409c2.979,0,5.958-1.14,8.227-3.409l16.454-16.454
			C401.839,68.433,401.839,61.079,397.289,56.529z"/>
	</g>
</g>
<g>
</g>
<g>
</g>
<g>
</g>
<g>
</g>
<g>
</g>
<g>
</g>
<g>
</g>
<g>
</g>
<g>
</g>
<g>
</g>
<g>
</g>
<g>
</g>
<g>
</g>
<g>
</g>
<g>
</g>
</svg>
