<svg id="Capa_1" enable-background="new 0 0 505.536 505.536" height="512" viewBox="0 0 505.536 505.536" width="512" xmlns="http://www.w3.org/2000/svg"><path d="m228.464 37.903h-86.986c-12.84 0-12.859 20 0 20h86.986c12.84 0 12.858-20 0-20z"/><path d="m31.615 353.737c2.233 3.317 6.336 5.047 10.27 4.26 4.275-.856 7.555-4.494 7.999-8.825.908-8.862-9.915-14.304-16.549-8.491-3.723 3.262-4.462 8.942-1.72 13.056z"/><path d="m347.956 358.414h14.448l48.333 45.7c6.181 5.844 16.946 1.263 16.87-7.355l-.341-38.345h18.517c16.442 0 29.819-13.377 29.819-29.819v-156.974c0-16.441-13.377-29.818-29.819-29.818h-97.827v-101.803c0-22.056-18.313-40-40.822-40h-236.379c-22.509 0-40.821 17.944-40.821 40v268.399c0 12.84 20 12.859 20 0v-212.593h278.022v45.997h-119.191c-.001 0-.002 0-.003 0-16.229 0-29.817 13.585-29.817 29.818v40.835c0 12.84 20 12.859 20 0v-40.835c0-5.548 4.598-9.432 9.819-9.818h237.02c5.415 0 9.819 4.404 9.819 9.818v156.974c0 5.414-4.405 9.819-9.819 9.819h-28.606c-5.485 0-10.049 4.604-10 10.089l.222 24.93-34.146-32.285c-1.856-1.755-4.315-2.733-6.87-2.733h-157.62c-5.414 0-9.819-4.405-9.819-9.819v-34.998c0-12.84-20-12.859-20 0v34.998c0 16.442 13.376 29.819 29.819 29.819h119.192v49.841h-278.022v-20.598c0-12.84-20-12.859-20 0v77.879c0 22.056 18.313 40 40.822 40h236.378c22.509 0 40.822-17.944 40.822-40zm-298.022-282.608v-35.806c0-11.028 9.341-20 20.822-20h236.378c11.481 0 20.822 8.972 20.822 20v35.806zm163.678 381.09c0 15.793-12.848 28.641-28.641 28.641-15.792 0-28.641-12.848-28.641-28.641s12.848-28.641 28.641-28.641 28.641 12.848 28.641 28.641zm-163.678 8.64v-37.281h95.757c-12.335 16.872-12.34 40.403 0 57.281h-74.936c-11.481 0-20.821-8.972-20.821-20zm278.022 0c0 11.028-9.341 20-20.822 20h-82.882c12.335-16.872 12.34-40.403 0-57.281h103.705v37.281z"/><path d="m392.463 249.207c0-37.067-30.157-67.225-67.224-67.225s-67.224 30.157-67.224 67.225 30.157 67.225 67.224 67.225 67.224-30.158 67.224-67.225zm-114.448 0c0-26.04 21.185-47.225 47.224-47.225s47.224 21.185 47.224 47.225-21.185 47.225-47.224 47.225-47.224-21.185-47.224-47.225z"/><path d="m350.652 247.302c9.121-9.122-5.021-23.262-14.143-14.143l-15.346 15.346-7.194-7.194c-9.122-9.12-23.263 5.021-14.143 14.143l14.266 14.266c3.858 3.858 10.284 3.858 14.143 0z"/><path d="m180.635 258.757c4.744 7.248 16.152 4.967 18.065-3.361.952-4.144-.974-8.584-4.617-10.76-3.665-2.189-8.432-1.78-11.668 1.003-3.775 3.248-4.541 8.98-1.78 13.118z"/></svg>