<svg id="Capa_1" enable-background="new 0 0 512 512" height="512" viewBox="0 0 512 512" width="512" xmlns="http://www.w3.org/2000/svg"><path d="m468.952 135.898h-14.366c-4.102-12.242-15.672-21.091-29.278-21.091h-41.346v-66.495c0-4.295-2.743-8.111-6.815-9.479l-13.381-4.497c-5.413-1.805-54.433-17.635-107.766-17.635-53.323 0-102.343 15.831-107.779 17.643l-13.358 4.489c-4.071 1.368-6.814 5.184-6.814 9.479v66.495h-41.348c-13.606 0-25.175 8.849-29.278 21.091h-14.375c-23.736 0-43.048 19.311-43.048 43.048v264.46 8.854c0 23.731 19.312 43.038 43.048 43.038h425.914c23.731 0 43.038-19.307 43.038-43.038v-8.854-264.46c0-23.737-19.312-43.048-43.048-43.048zm-320.904-80.398 6.521-2.191c2.034-.678 50.401-16.609 101.431-16.609 51.039 0 99.406 15.931 101.419 16.601l6.544 2.199v59.306h-19.203v-37.68c0-4.539-3.057-8.508-7.444-9.668-16.325-4.315-48.596-11.554-81.316-11.554-32.889 0-65.062 7.228-81.312 11.536-4.385 1.162-7.438 5.13-7.438 9.666v37.701h-19.203v-59.307zm39.203 59.307v-29.916c16.528-3.985 42.505-8.987 68.749-8.987 26.12 0 52.166 5.018 68.76 9.012v29.891zm-111.426 30.876c0-5.997 4.879-10.876 10.876-10.876h338.607c5.997 0 10.876 4.879 10.876 10.876v.215 95.658c0 2.38-.302 4.703-.874 6.928-2.477 9.64-10.018 17.432-20.006 20.002l-114.596 29.476c-.911-14.646-13.116-26.283-27.988-26.283h-33.43c-14.873 0-27.078 11.637-27.989 26.283l-114.596-29.477c-9.989-2.57-17.53-10.362-20.006-20.002-.572-2.225-.873-4.548-.873-6.928v-64.061h281.612c5.522 0 10-4.477 10-10s-4.478-10-10-10h-281.613v-11.597zm155.419 165.196c0-.011.002-.022.002-.034v-10.793c.021-4.619 3.783-8.372 8.408-8.372h32.699c4.638 0 8.41 3.773 8.41 8.41v10.755 21.945c0 4.637-3.772 8.41-8.41 8.41h-32.699c-4.638 0-8.41-3.772-8.41-8.41zm-211.244-131.933c0-12.709 10.339-23.048 23.048-23.048h12.777v85.658c0 21.824 14.762 40.862 35.897 46.299l119.521 30.743v14.192c0 15.665 12.745 28.41 28.41 28.41h32.699c15.665 0 28.41-12.745 28.41-28.41v-14.192l119.523-30.744c21.136-5.437 35.897-24.475 35.897-46.299v-85.658h12.768c12.709 0 23.048 10.339 23.048 23.048v254.46h-471.998zm448.962 296.353h-425.914c-12.325 0-22.421-9.719-23.02-21.893h471.943c-.598 12.175-10.69 21.893-23.009 21.893z"/><path d="m392.83 171.32c2.02 5.067 8.073 7.452 13.05 5.399 5.219-2.153 7.602-8.396 5.201-13.491-2.079-4.413-7.239-6.723-11.922-5.298-5.556 1.69-8.567 8.017-6.329 13.39z"/></svg>