<?xml version="1.0" encoding="utf-8"?>
<!-- Generator: Adobe Illustrator 16.0.0, SVG Export Plug-In . SVG Version: 6.00 Build 0)  -->
<!DOCTYPE svg PUBLIC "-//W3C//DTD SVG 1.1//EN" "http://www.w3.org/Graphics/SVG/1.1/DTD/svg11.dtd">
<svg version="1.1" id="Слой_1" xmlns="http://www.w3.org/2000/svg" xmlns:xlink="http://www.w3.org/1999/xlink" x="0px" y="0px"
	 width="100px" height="100px" viewBox="0 0 100 100" enable-background="new 0 0 100 100" xml:space="preserve">
<g>
	<path fill="#747575" d="M85.1,56.62H66.113c-5.108,0-9.289,4.061-9.484,9.122c-12.07-1.919-21.232-11.108-23.304-23.374
		c5.032-0.227,9.055-4.39,9.055-9.482V13.9c0-5.235-4.257-9.493-9.493-9.493H13.9c-5.235,0-9.493,4.258-9.493,9.493v23.733
		c0,31.41,25.552,56.959,56.959,56.959H85.1c5.238,0,9.493-4.26,9.493-9.493V66.113C94.593,60.875,90.338,56.62,85.1,56.62z
		 M61.366,85.1C35.193,85.1,13.9,63.81,13.9,37.633V13.9h18.986v18.986H28.14c-1.272,0-2.491,0.51-3.384,1.416
		c-0.892,0.909-1.381,2.132-1.363,3.407c0.343,21.604,16.669,37.896,37.973,37.896c2.624,0,4.747-2.123,4.747-4.747v-4.746H85.1
		L85.108,85.1H61.366z"/>
</g>
</svg>
