<?xml version="1.0" encoding="utf-8"?>
<!-- Generator: Adobe Illustrator 16.0.0, SVG Export Plug-In . SVG Version: 6.00 Build 0)  -->
<!DOCTYPE svg PUBLIC "-//W3C//DTD SVG 1.1//EN" "http://www.w3.org/Graphics/SVG/1.1/DTD/svg11.dtd">
<svg version="1.1" id="Слой_1" xmlns="http://www.w3.org/2000/svg" xmlns:xlink="http://www.w3.org/1999/xlink" x="0px" y="0px"
	 width="100px" height="100px" viewBox="0 0 100 100" enable-background="new 0 0 100 100" xml:space="preserve">
<g>
	<path fill-rule="evenodd" clip-rule="evenodd" d="M51.492,24.148c0.899,0.104,1.802,0.198,2.7,0.318
		c0.486,0.065,0.972,0.158,1.448,0.271c2.282,0.543,3.351,1.788,3.473,4.263c0.085,1.705,0.022,3.42-0.015,5.129
		c-0.077,3.622-0.232,7.244-0.242,10.866c-0.003,1.293,0.242,2.604,0.529,3.872c0.132,0.578,0.599,1.104,0.99,1.593
		c0.354,0.444,0.905,0.519,1.396,0.271c0.579-0.291,1.154-0.629,1.643-1.05c1.64-1.416,2.881-3.176,4.124-4.93
		c3.528-4.98,6.068-10.47,8.344-16.101c0.25-0.619,0.702-1.172,1.133-1.696c0.382-0.467,0.954-0.553,1.547-0.509
		c0.562,0.041,1.125,0.068,1.688,0.069c4.334,0.005,8.667,0.002,13,0.003c1.054,0,2.106,0.007,3.16,0.013
		c0.071,0,0.145,0.019,0.216,0.031c1.8,0.313,2.425,1.2,2.106,3.001c-0.326,1.842-1.18,3.471-2.082,5.075
		c-2.076,3.691-4.611,7.071-7.135,10.457c-1.608,2.16-3.25,4.298-4.825,6.482c-0.571,0.791-1.05,1.664-1.466,2.548
		c-0.545,1.156-0.483,2.371,0.338,3.353c1.127,1.35,2.333,2.647,3.61,3.857c2.854,2.707,5.747,5.379,8.197,8.469
		c1.004,1.266,1.909,2.617,2.773,3.983c0.38,0.6,0.624,1.317,0.786,2.015c0.286,1.224-0.182,2.216-1.254,2.892
		c-1.015,0.64-2.151,0.894-3.328,0.925c-3.858,0.103-7.733-0.007-11.572,0.311c-3.813,0.317-6.734-1.193-9.28-3.721
		c-1.64-1.625-3.109-3.419-4.685-5.11c-0.955-1.024-1.945-2.019-2.96-2.98c-0.392-0.37-0.873-0.66-1.353-0.914
		c-1.257-0.663-2.387-0.454-3.363,0.583c-0.729,0.774-1.146,1.723-1.453,2.722c-0.495,1.61-0.716,3.267-0.771,4.948
		c-0.006,0.162,0,0.328-0.012,0.49c-0.149,2.294-1.604,3.667-3.917,3.669c-2.422,0-4.848,0.07-7.262-0.059
		c-4.74-0.257-9.112-1.793-13.232-4.097c-4.581-2.562-8.321-6.098-11.658-10.096c-4.332-5.189-7.954-10.86-11.308-16.711
		c-3.44-6.003-6.553-12.173-9.367-18.495c-0.224-0.506-0.36-1.07-0.434-1.622c-0.108-0.809,0.176-1.316,0.949-1.574
		c0.681-0.227,1.413-0.415,2.123-0.421c4.588-0.039,9.178-0.092,13.764,0.012c1.771,0.04,3.126,0.866,3.857,2.744
		c2.054,5.289,4.689,10.298,7.836,15.022c1.239,1.858,2.606,3.635,3.994,5.387c0.472,0.597,1.131,1.093,1.793,1.488
		c1.274,0.761,2.537,0.393,3.128-0.967c0.422-0.972,0.741-2.029,0.877-3.078c0.638-4.957,0.535-9.913-0.227-14.853
		c-0.037-0.233-0.115-0.46-0.15-0.694c-0.233-1.553-1.194-2.5-2.598-3.021c-0.71-0.264-1.459-0.45-2.206-0.581
		c-0.461-0.081-0.553-0.288-0.339-0.609c0.287-0.435,0.616-0.859,1-1.21c1.257-1.149,2.84-1.509,4.463-1.703
		c1.245-0.148,2.499-0.223,3.747-0.33C46.321,24.148,48.907,24.148,51.492,24.148z M3.783,28.663
		c0.104,0.277,0.153,0.448,0.229,0.609c0.973,2.093,1.917,4.2,2.933,6.272c2.552,5.208,5.262,10.332,8.268,15.296
		c3.228,5.329,6.69,10.482,10.89,15.113c3.338,3.682,7.119,6.758,11.646,8.861c2.737,1.271,5.564,2.322,8.589,2.52
		c2.919,0.19,5.854,0.178,8.781,0.192c1.134,0.005,1.623-0.575,1.715-1.633c0.124-1.428,0.23-2.863,0.467-4.274
		c0.292-1.733,0.862-3.374,1.934-4.815c1.483-1.995,4.101-2.604,6.277-1.415c1.84,1.005,3.225,2.523,4.609,4.049
		c1.734,1.913,3.405,3.895,5.265,5.681c1.808,1.736,3.866,2.921,6.623,2.741c4.047-0.264,8.114-0.201,12.171-0.326
		c0.709-0.022,1.437-0.213,2.109-0.455c0.7-0.251,0.832-0.607,0.524-1.294c-0.325-0.726-0.715-1.431-1.149-2.098
		c-2.093-3.211-4.773-5.91-7.505-8.563c-1.698-1.648-3.453-3.239-5.095-4.94c-0.707-0.731-1.308-1.622-1.754-2.54
		c-0.852-1.761-0.587-3.564,0.411-5.166c1.208-1.94,2.535-3.814,3.904-5.647c2.982-3.993,6.088-7.902,8.62-12.206
		c0.907-1.543,1.641-3.199,2.33-4.856c0.413-0.992,0.195-1.218-0.873-1.233c-0.999-0.014-2,0.052-3,0.054
		c-4.388,0.007-8.775,0.003-13.164,0.002c-0.2,0-0.413,0.038-0.598-0.019c-0.63-0.191-0.88,0.15-1.094,0.664
		c-0.875,2.096-1.743,4.195-2.669,6.268c-1.947,4.349-4.396,8.405-7.241,12.222c-1.188,1.592-2.447,3.129-4.111,4.265
		c-2.104,1.435-4.212,1.221-5.714-0.985c-0.842-1.237-1.185-2.657-1.233-4.075c-0.106-3.09-0.048-6.187-0.011-9.28
		c0.032-2.8,0.154-5.601,0.181-8.402c0.016-1.649-0.561-2.34-2.207-2.566c-1.654-0.226-3.327-0.417-4.992-0.425
		c-3.001-0.015-6.003,0.099-9.004,0.205c-0.782,0.027-1.558,0.226-2.337,0.346c0.203,0.259,0.405,0.377,0.599,0.509
		c0.835,0.564,1.686,1.144,2.009,2.154c0.342,1.07,0.716,2.155,0.849,3.261c0.257,2.127,0.393,4.271,0.507,6.411
		c0.161,3.005,0.058,6.005-0.496,8.97c-0.26,1.392-0.58,2.78-1.494,3.937c-0.868,1.096-2.052,1.637-3.383,1.556
		c-0.83-0.051-1.688-0.432-2.437-0.838c-1.214-0.657-2.163-1.676-2.952-2.792c-1.563-2.212-3.108-4.438-4.568-6.718
		c-2.656-4.145-4.771-8.573-6.661-13.111c-0.491-1.174-1.022-1.553-2.295-1.553c-4.297-0.001-8.594-0.002-12.89,0.003
		C4.829,28.595,4.359,28.636,3.783,28.663z"/>
</g>
</svg>
